<svg width="134" height="35" viewBox="0 0 134 35" fill="none" xmlns="http://www.w3.org/2000/svg">
<rect x="0.5" width="133" height="35" rx="17.5" fill="#D3F37B"/>
<path d="M16.2152 21.996V20.792H18.9172C19.6358 20.792 20.2658 20.638 20.8072 20.33C21.3485 20.0127 21.7685 19.5787 22.0672 19.028C22.3752 18.4773 22.5292 17.8427 22.5292 17.124C22.5292 16.4147 22.3752 15.7847 22.0672 15.234C21.7592 14.6833 21.3345 14.254 20.7932 13.946C20.2518 13.638 19.6265 13.484 18.9172 13.484H16.2292V12.28H18.9452C19.6545 12.28 20.3078 12.4013 20.9052 12.644C21.5118 12.8867 22.0345 13.2273 22.4732 13.666C22.9212 14.1047 23.2665 14.618 23.5092 15.206C23.7612 15.794 23.8872 16.438 23.8872 17.138C23.8872 17.8287 23.7612 18.4727 23.5092 19.07C23.2665 19.658 22.9258 20.1713 22.4872 20.61C22.0485 21.0487 21.5258 21.3893 20.9192 21.632C20.3218 21.8747 19.6732 21.996 18.9732 21.996H16.2152ZM15.3472 21.996V12.28H16.6632V21.996H15.3472Z" fill="#020721"/>
<path d="M28.5244 22.136C27.8711 22.136 27.2831 21.982 26.7604 21.674C26.2378 21.366 25.8224 20.9507 25.5144 20.428C25.2064 19.896 25.0524 19.3033 25.0524 18.65C25.0524 18.006 25.2064 17.4273 25.5144 16.914C25.8224 16.3913 26.2378 15.976 26.7604 15.668C27.2831 15.36 27.8711 15.206 28.5244 15.206C29.1684 15.206 29.7518 15.36 30.2744 15.668C30.8064 15.9667 31.2264 16.3773 31.5344 16.9C31.8424 17.4227 31.9964 18.006 31.9964 18.65C31.9964 19.3033 31.8424 19.896 31.5344 20.428C31.2264 20.9507 30.8064 21.366 30.2744 21.674C29.7518 21.982 29.1684 22.136 28.5244 22.136ZM28.5244 20.918C28.9444 20.918 29.3178 20.82 29.6444 20.624C29.9711 20.428 30.2278 20.162 30.4144 19.826C30.6011 19.4807 30.6944 19.0887 30.6944 18.65C30.6944 18.2207 30.5964 17.838 30.4004 17.502C30.2138 17.166 29.9571 16.9047 29.6304 16.718C29.3131 16.522 28.9444 16.424 28.5244 16.424C28.1044 16.424 27.7311 16.522 27.4044 16.718C27.0778 16.9047 26.8211 17.166 26.6344 17.502C26.4478 17.838 26.3544 18.2207 26.3544 18.65C26.3544 19.0887 26.4478 19.4807 26.6344 19.826C26.8211 20.162 27.0778 20.428 27.4044 20.624C27.7311 20.82 28.1044 20.918 28.5244 20.918Z" fill="#020721"/>
<path d="M35.1287 21.996L32.4967 15.346H33.8127L35.7167 20.526H35.2967L37.1867 15.346H37.9147L39.8047 20.526H39.3847L41.2887 15.346H42.6047L39.9867 21.996H39.2447L37.3267 16.97H37.7887L35.8567 21.996H35.1287Z" fill="#020721"/>
<path d="M48.4287 21.996V18.118C48.4287 17.614 48.2701 17.1987 47.9527 16.872C47.6354 16.5453 47.2247 16.382 46.7207 16.382C46.3847 16.382 46.0861 16.4567 45.8247 16.606C45.5634 16.7553 45.3581 16.9607 45.2087 17.222C45.0594 17.4833 44.9847 17.782 44.9847 18.118L44.4667 17.824C44.4667 17.32 44.5787 16.872 44.8027 16.48C45.0267 16.088 45.3394 15.78 45.7407 15.556C46.1421 15.3227 46.5947 15.206 47.0987 15.206C47.6027 15.206 48.0461 15.332 48.4287 15.584C48.8207 15.836 49.1287 16.1673 49.3527 16.578C49.5767 16.9793 49.6887 17.4087 49.6887 17.866V21.996H48.4287ZM43.7247 21.996V15.346H44.9847V21.996H43.7247Z" fill="#020721"/>
<path d="M51.3947 21.996V12H52.6547V21.996H51.3947Z" fill="#020721"/>
<path d="M57.5362 22.136C56.8828 22.136 56.2948 21.982 55.7722 21.674C55.2495 21.366 54.8342 20.9507 54.5262 20.428C54.2182 19.896 54.0642 19.3033 54.0642 18.65C54.0642 18.006 54.2182 17.4273 54.5262 16.914C54.8342 16.3913 55.2495 15.976 55.7722 15.668C56.2948 15.36 56.8828 15.206 57.5362 15.206C58.1802 15.206 58.7635 15.36 59.2862 15.668C59.8182 15.9667 60.2382 16.3773 60.5462 16.9C60.8542 17.4227 61.0082 18.006 61.0082 18.65C61.0082 19.3033 60.8542 19.896 60.5462 20.428C60.2382 20.9507 59.8182 21.366 59.2862 21.674C58.7635 21.982 58.1802 22.136 57.5362 22.136ZM57.5362 20.918C57.9562 20.918 58.3295 20.82 58.6562 20.624C58.9828 20.428 59.2395 20.162 59.4262 19.826C59.6128 19.4807 59.7062 19.0887 59.7062 18.65C59.7062 18.2207 59.6082 17.838 59.4122 17.502C59.2255 17.166 58.9688 16.9047 58.6422 16.718C58.3248 16.522 57.9562 16.424 57.5362 16.424C57.1162 16.424 56.7428 16.522 56.4162 16.718C56.0895 16.9047 55.8328 17.166 55.6462 17.502C55.4595 17.838 55.3662 18.2207 55.3662 18.65C55.3662 19.0887 55.4595 19.4807 55.6462 19.826C55.8328 20.162 56.0895 20.428 56.4162 20.624C56.7428 20.82 57.1162 20.918 57.5362 20.918Z" fill="#020721"/>
<path d="M65.2559 22.136C64.6492 22.136 64.0985 21.9867 63.6039 21.688C63.1092 21.38 62.7172 20.9647 62.4279 20.442C62.1479 19.9193 62.0079 19.3313 62.0079 18.678C62.0079 18.0247 62.1479 17.4367 62.4279 16.914C62.7172 16.3913 63.1045 15.976 63.5899 15.668C64.0845 15.36 64.6399 15.206 65.2559 15.206C65.7599 15.206 66.2079 15.3133 66.5999 15.528C67.0012 15.7333 67.3232 16.0227 67.5659 16.396C67.8085 16.76 67.9439 17.1847 67.9719 17.67V19.672C67.9439 20.148 67.8085 20.5727 67.5659 20.946C67.3325 21.3193 67.0152 21.6133 66.6139 21.828C66.2219 22.0333 65.7692 22.136 65.2559 22.136ZM65.4659 20.946C66.0912 20.946 66.5952 20.736 66.9779 20.316C67.3605 19.8867 67.5519 19.3407 67.5519 18.678C67.5519 18.2207 67.4632 17.824 67.2859 17.488C67.1179 17.1427 66.8752 16.8767 66.5579 16.69C66.2405 16.494 65.8719 16.396 65.4519 16.396C65.0319 16.396 64.6585 16.494 64.3319 16.69C64.0145 16.886 63.7625 17.1567 63.5759 17.502C63.3985 17.838 63.3099 18.2253 63.3099 18.664C63.3099 19.112 63.3985 19.5087 63.5759 19.854C63.7625 20.19 64.0192 20.456 64.3459 20.652C64.6725 20.848 65.0459 20.946 65.4659 20.946ZM67.4679 21.996V20.204L67.7059 18.58L67.4679 16.97V15.346H68.7419V21.996H67.4679Z" fill="#020721"/>
<path d="M73.3903 22.136C72.7743 22.136 72.2236 21.9867 71.7383 21.688C71.253 21.38 70.8656 20.9647 70.5763 20.442C70.2963 19.9193 70.1563 19.3313 70.1563 18.678C70.1563 18.0247 70.2963 17.4367 70.5763 16.914C70.8656 16.3913 71.253 15.976 71.7383 15.668C72.2236 15.36 72.7743 15.206 73.3903 15.206C73.885 15.206 74.333 15.3133 74.7343 15.528C75.1356 15.7333 75.4576 16.0227 75.7003 16.396C75.9523 16.76 76.0923 17.1847 76.1203 17.67V19.672C76.0923 20.148 75.957 20.5727 75.7143 20.946C75.4716 21.3193 75.1496 21.6133 74.7483 21.828C74.347 22.0333 73.8943 22.136 73.3903 22.136ZM73.6003 20.946C74.0203 20.946 74.3843 20.848 74.6923 20.652C75.0096 20.456 75.257 20.19 75.4343 19.854C75.6116 19.5087 75.7003 19.1167 75.7003 18.678C75.7003 18.2207 75.607 17.824 75.4203 17.488C75.243 17.152 74.9956 16.886 74.6783 16.69C74.3703 16.494 74.0063 16.396 73.5863 16.396C73.1663 16.396 72.7976 16.494 72.4803 16.69C72.163 16.886 71.911 17.1567 71.7243 17.502C71.547 17.838 71.4583 18.2253 71.4583 18.664C71.4583 19.112 71.547 19.5087 71.7243 19.854C71.911 20.19 72.163 20.456 72.4803 20.652C72.807 20.848 73.1803 20.946 73.6003 20.946ZM76.8903 21.996H75.6163V20.204L75.8543 18.58L75.6163 16.97V12H76.8903V21.996Z" fill="#020721"/>
<path d="M113.353 16.8038L106.067 24.5374C106.067 24.539 106.068 24.5403 106.068 24.5419C106.292 25.3816 107.059 26 107.969 26C108.333 26 108.675 25.9016 108.968 25.7289L108.991 25.7153L117.192 20.9826L113.353 16.8038" fill="#EA4335"/>
<path d="M120.725 15.4868L120.718 15.482L117.177 13.4293L113.188 16.9791L117.191 20.9817L120.713 18.9494C121.331 18.616 121.75 17.965 121.75 17.2143C121.75 16.469 121.336 15.8213 120.725 15.4868" fill="#FBBC04"/>
<path d="M106.067 9.85933C106.023 10.0208 106 10.19 106 10.3657V24.0313C106 24.2067 106.023 24.3764 106.067 24.5374L113.604 17.0016L106.067 9.85933Z" fill="#4285F4"/>
<path d="M113.407 17.1985L117.179 13.4282L108.986 8.6784C108.688 8.50005 108.341 8.39712 107.969 8.39712C107.059 8.39712 106.291 9.01656 106.067 9.85733C106.067 9.85815 106.067 9.8587 106.067 9.85945L113.407 17.1985Z" fill="#34A853"/>
</svg>
